<?xml version="1.0" encoding="UTF-8"?>
<!DOCTYPE svg PUBLIC "-//W3C//DTD SVG 1.1//EN" "http://www.w3.org/Graphics/SVG/1.1/DTD/svg11.dtd">
<svg xmlns="http://www.w3.org/2000/svg" version="1.1" width="560px" height="445px" style="shape-rendering:geometricPrecision; text-rendering:geometricPrecision; image-rendering:optimizeQuality; fill-rule:evenodd; clip-rule:evenodd" xmlns:xlink="http://www.w3.org/1999/xlink">
<g><path style="opacity:1" fill="#85bbdb" d="M 416.5,-0.5 C 416.833,-0.5 417.167,-0.5 417.5,-0.5C 417.5,-0.166667 417.5,0.166667 417.5,0.5C 416.833,1.16667 416.167,1.83333 415.5,2.5C 414.07,3.53747 412.403,4.20414 410.5,4.5C 412.596,2.98832 414.596,1.32165 416.5,-0.5 Z"/></g>
<g><path style="opacity:1" fill="#0581cb" d="M 556.5,-0.5 C 556.833,-0.5 557.167,-0.5 557.5,-0.5C 557.833,0.833333 558.167,0.833333 558.5,-0.5C 558.833,-0.5 559.167,-0.5 559.5,-0.5C 559.5,26.8333 559.5,54.1667 559.5,81.5C 548.892,86.2715 538.892,92.1049 529.5,99C 528.207,99.49 526.873,99.6567 525.5,99.5C 524.85,99.1961 524.183,98.8627 523.5,98.5C 521.19,100.412 518.523,101.412 515.5,101.5C 515.762,102.978 515.429,104.311 514.5,105.5C 512.739,106.035 511.406,107.035 510.5,108.5C 504.694,110.953 498.694,112.953 492.5,114.5C 492.879,117.567 491.879,118.567 489.5,117.5C 489.5,116.5 489.5,115.5 489.5,114.5C 490.324,89.9056 490.824,65.239 491,40.5C 492.039,39.7562 492.539,38.7562 492.5,37.5C 492.833,37.5 493.167,37.5 493.5,37.5C 498.094,37.2475 501.761,35.2475 504.5,31.5C 510.334,27.0791 516.668,23.4124 523.5,20.5C 529.452,19.2406 534.452,16.2406 538.5,11.5C 543.138,8.02888 548.138,5.19554 553.5,3C 555.063,2.24109 556.063,1.07442 556.5,-0.5 Z"/></g>
<g><path style="opacity:1" fill="#01affd" d="M -0.5,-0.5 C -0.166667,-0.5 0.166667,-0.5 0.5,-0.5C 2.66256,1.0828 4.99589,2.41613 7.5,3.5C 8.98696,6.48397 11.3203,8.65064 14.5,10C 19.7454,12.7906 25.0787,15.2906 30.5,17.5C 30.8333,17.5 31.1667,17.5 31.5,17.5C 32.0668,19.0295 32.7334,20.5295 33.5,22C 36.7699,23.4589 40.1032,24.6256 43.5,25.5C 43.67,26.8221 43.3366,27.9887 42.5,29C 46.9316,28.5251 50.9316,29.8584 54.5,33C 55.7932,33.49 57.1266,33.6567 58.5,33.5C 60.7837,33.9752 62.7837,34.9752 64.5,36.5C 66.2414,40.2156 69.2414,42.2156 73.5,42.5C 73.8333,42.5 74.1667,42.5 74.5,42.5C 74.5394,43.5832 74.8728,44.5832 75.5,45.5C 77.8244,46.6622 80.1578,47.8289 82.5,49C 81.2888,49.8928 81.2888,50.7261 82.5,51.5C 83.6869,50.1062 84.3535,50.2729 84.5,52C 83.7282,53.221 82.7282,54.221 81.5,55C 83.075,54.621 84.575,54.7877 86,55.5C 87.3333,54.8333 88.3333,53.8333 89,52.5C 90.339,55.0943 92.5056,56.5943 95.5,57C 92.6667,58.8333 92.8333,60.3333 96,61.5C 97.7034,58.2808 100.203,57.6141 103.5,59.5C 103.833,59.5 104.167,59.5 104.5,59.5C 106.503,62.0113 108.336,64.6779 110,67.5C 110.561,66.9781 111.228,66.6448 112,66.5C 115.147,67.6621 118.314,68.6621 121.5,69.5C 123.577,71.308 124.744,73.308 125,75.5C 128.026,76.8718 131.193,77.5385 134.5,77.5C 135.167,77.5 135.5,77.8333 135.5,78.5C 138.968,82.1682 143.134,84.8348 148,86.5C 148.383,85.944 148.883,85.6107 149.5,85.5C 152.4,86.4432 154.733,88.1099 156.5,90.5C 158.709,93.3304 161.709,94.9971 165.5,95.5C 165.833,95.5 166.167,95.5 166.5,95.5C 166.414,96.4959 166.748,97.3292 167.5,98C 170.752,99.2561 173.419,101.256 175.5,104C 174.978,104.95 174.311,105.784 173.5,106.5C 175.672,107.205 177.672,108.205 179.5,109.5C 180.282,107.671 179.616,106.171 177.5,105C 181.489,105.497 184.822,107.33 187.5,110.5C 192.051,111.747 196.384,113.414 200.5,115.5C 203.76,116.774 206.76,118.44 209.5,120.5C 209.484,146.528 209.484,172.861 209.5,199.5C 209.5,200.167 209.833,200.5 210.5,200.5C 210.44,201.043 210.107,201.376 209.5,201.5C 205.012,199.423 200.679,197.09 196.5,194.5C 196.461,193.417 196.127,192.417 195.5,191.5C 192.849,189.184 190.182,186.851 187.5,184.5C 188.167,183.833 188.833,183.167 189.5,182.5C 187.955,181.548 186.288,181.215 184.5,181.5C 184.5,182.5 184.5,183.5 184.5,184.5C 180.759,184.334 178.593,182.334 178,178.5C 176.836,178.165 175.503,178.165 174,178.5C 173.517,177.552 173.351,176.552 173.5,175.5C 170.873,176.092 168.206,176.425 165.5,176.5C 164.41,174.563 163.076,172.73 161.5,171C 163.455,170.047 165.122,168.713 166.5,167C 165.725,165.77 164.725,165.437 163.5,166C 161.194,172.985 158.194,173.318 154.5,167C 156.709,166.043 156.543,164.876 154,163.5C 153.517,164.448 153.351,165.448 153.5,166.5C 152.5,166.5 151.5,166.5 150.5,166.5C 150.33,165.178 150.663,164.011 151.5,163C 149.231,163.374 146.898,163.374 144.5,163C 142.411,161.829 140.411,160.496 138.5,159C 139.337,156.295 140.337,153.629 141.5,151C 137.444,150.815 133.611,151.648 130,153.5C 126.783,150.742 122.95,149.408 118.5,149.5C 117.498,147.989 116.831,146.322 116.5,144.5C 114.139,144.326 111.806,143.993 109.5,143.5C 109.5,142.5 109.5,141.5 109.5,140.5C 104.744,139.247 100.077,137.58 95.5,135.5C 86.8356,131.839 78.8356,127.173 71.5,121.5C 70.791,120.596 69.791,120.263 68.5,120.5C 68.5,173.5 68.5,226.5 68.5,279.5C 65.2776,277.979 61.9443,276.646 58.5,275.5C 57.8333,275.5 57.1667,275.5 56.5,275.5C 54.5974,272.706 52.5974,269.873 50.5,267C 46.9399,265.763 43.2733,265.263 39.5,265.5C 37.8077,265.27 36.1411,264.27 34.5,262.5C 34.5,261.5 34.5,260.5 34.5,259.5C 30.4418,258.531 26.7751,256.698 23.5,254C 24.624,253.751 25.624,253.251 26.5,252.5C 24.7688,251.657 22.9354,251.657 21,252.5C 18.941,251.382 16.7743,250.715 14.5,250.5C 9.3682,248.1 4.3682,245.434 -0.5,242.5C -0.5,161.5 -0.5,80.5 -0.5,-0.5 Z"/></g>
<g><path style="opacity:1" fill="#0281cb" d="M 415.5,2.5 C 416.5,2.5 417.5,2.5 418.5,2.5C 418.667,81.834 418.5,161.167 418,240.5C 416.519,241.471 415.685,242.804 415.5,244.5C 408.293,249.605 400.626,253.938 392.5,257.5C 389.834,257.933 387.168,258.433 384.5,259C 384.833,259.333 385.167,259.667 385.5,260C 382.921,261.496 380.255,262.829 377.5,264C 376.748,264.671 376.414,265.504 376.5,266.5C 372.997,269.667 368.997,272 364.5,273.5C 361.021,274.204 357.688,275.37 354.5,277C 351.3,280.458 347.3,282.458 342.5,283C 342.833,283.333 343.167,283.667 343.5,284C 339.245,283.783 336.578,285.616 335.5,289.5C 332.376,289.132 330.043,290.298 328.5,293C 329.056,293.383 329.389,293.883 329.5,294.5C 329.167,294.5 328.833,294.5 328.5,294.5C 325.482,294.506 322.816,295.506 320.5,297.5C 319.749,296.624 319.249,295.624 319,294.5C 318.25,295.126 317.416,295.626 316.5,296C 317.357,296.689 318.023,297.522 318.5,298.5C 316.518,299.216 314.851,300.383 313.5,302C 311.39,302.554 309.39,303.388 307.5,304.5C 304.347,302.671 303.347,303.338 304.5,306.5C 303.667,306.833 302.833,307.167 302,307.5C 300.21,308.285 298.543,308.285 297,307.5C 297.019,309.107 297.185,310.774 297.5,312.5C 295.132,313.783 292.965,315.45 291,317.5C 290.667,317.167 290.333,316.833 290,316.5C 287.893,318.487 285.393,319.82 282.5,320.5C 280.876,320.36 279.71,321.027 279,322.5C 257.852,310.014 236.686,297.681 215.5,285.5C 216.531,284.751 217.698,284.085 219,283.5C 219.228,280.676 220.395,278.343 222.5,276.5C 223.167,276.833 223.833,277.167 224.5,277.5C 225.551,276.115 226.884,275.115 228.5,274.5C 231.766,277.865 235.433,278.365 239.5,276C 237.35,273.296 235.184,273.129 233,275.5C 231.729,274.295 231.063,272.962 231,271.5C 233.742,270.43 236.242,268.93 238.5,267C 240.557,266.695 242.557,266.695 244.5,267C 241.833,265.667 241.833,264.333 244.5,263C 247.288,262.866 249.955,263.199 252.5,264C 253.345,262.442 252.679,261.442 250.5,261C 253.485,259.336 256.485,257.669 259.5,256C 261.141,254.871 262.141,253.371 262.5,251.5C 267.442,247.939 272.442,245.272 277.5,243.5C 280.845,243.326 282.012,244.659 281,247.5C 282.11,245.963 283.61,245.297 285.5,245.5C 285.174,242.393 286.341,240.06 289,238.5C 290.011,239.337 291.178,239.67 292.5,239.5C 292.5,238.5 292.5,237.5 292.5,236.5C 296.813,238.098 299.98,236.764 302,232.5C 306.389,233.781 307.222,232.614 304.5,229C 306.909,228.252 309.075,227.085 311,225.5C 312.678,227.282 314.511,227.615 316.5,226.5C 315.675,225.614 314.675,225.281 313.5,225.5C 313.5,224.5 313.5,223.5 313.5,222.5C 314.899,221.11 316.566,220.11 318.5,219.5C 321.07,220.716 323.57,221.383 326,221.5C 328.152,219.723 327.985,218.223 325.5,217C 327.455,214.929 329.788,214.262 332.5,215C 331.5,215.333 330.5,215.667 329.5,216C 331.167,216.833 332.833,217.667 334.5,218.5C 335.298,216.922 335.798,215.256 336,213.5C 337.833,212.333 339.333,210.833 340.5,209C 342.574,209.227 344.574,209.061 346.5,208.5C 347.731,207.349 347.731,206.183 346.5,205C 348.063,204.241 349.063,203.074 349.5,201.5C 350.184,175.646 350.851,149.646 351.5,123.5C 351.167,122.833 350.833,122.167 350.5,121.5C 349.571,120.45 348.905,120.45 348.5,121.5C 346.117,123.358 343.45,124.692 340.5,125.5C 337.763,126.031 335.096,126.864 332.5,128C 331.663,129.011 331.33,130.178 331.5,131.5C 328.77,131.473 326.27,132.14 324,133.5C 321.76,131.048 319.593,131.048 317.5,133.5C 318.833,134.167 320.167,134.833 321.5,135.5C 318.218,135.963 315.884,137.63 314.5,140.5C 313.235,140.96 312.069,142.293 311,144.5C 310.667,144.167 310.333,143.833 310,143.5C 306.182,146.49 302.016,148.824 297.5,150.5C 292.133,152.534 286.8,154.534 281.5,156.5C 281.169,158.322 280.502,159.989 279.5,161.5C 275.835,162.652 272.169,162.819 268.5,162C 269.5,162.333 270.5,162.667 271.5,163C 269.911,164.745 267.911,165.912 265.5,166.5C 266.243,167.182 266.909,167.849 267.5,168.5C 267.167,168.5 266.833,168.5 266.5,168.5C 263.513,169.258 260.513,170.091 257.5,171C 257.833,171.333 258.167,171.667 258.5,172C 256.881,172.236 255.881,173.069 255.5,174.5C 255.047,175.458 254.381,176.292 253.5,177C 250.936,178.396 248.269,179.563 245.5,180.5C 242.832,180.666 240.498,181.666 238.5,183.5C 236.265,182.248 233.931,181.748 231.5,182C 232.517,183.049 232.684,184.216 232,185.5C 230.227,187.419 228.727,189.419 227.5,191.5C 227.167,191.5 226.833,191.5 226.5,191.5C 223.477,191.588 220.81,192.588 218.5,194.5C 216.786,193.391 216.119,194.058 216.5,196.5C 214.833,196.5 213.167,196.5 211.5,196.5C 211.715,198.179 211.048,199.179 209.5,199.5C 209.484,172.861 209.484,146.528 209.5,120.5C 219.996,114.53 229.996,108.53 239.5,102.5C 241.822,103.897 243.489,103.23 244.5,100.5C 271.693,83.8664 298.359,68.5331 324.5,54.5C 328.11,53.3765 331.776,52.3765 335.5,51.5C 336.429,50.3112 336.762,48.9778 336.5,47.5C 338.06,47.4809 339.56,47.1476 341,46.5C 341.945,46.9054 342.612,47.572 343,48.5C 345.46,47.245 346.627,45.245 346.5,42.5C 348.973,42.2009 351.14,41.2009 353,39.5C 354.895,40.6886 356.895,41.6886 359,42.5C 359.353,41.3284 359.187,40.1618 358.5,39C 361.06,35.6182 363.727,32.4516 366.5,29.5C 368.456,28.5082 370.456,27.5082 372.5,26.5C 374.027,26.573 375.027,25.9063 375.5,24.5C 386.452,17.5299 398.119,10.8632 410.5,4.5C 412.403,4.20414 414.07,3.53747 415.5,2.5 Z"/></g>
<g><path style="opacity:1" fill="#65bbe3" d="M 7.5,3.5 C 15.3691,7.92994 23.0358,12.5966 30.5,17.5C 25.0787,15.2906 19.7454,12.7906 14.5,10C 11.3203,8.65064 8.98696,6.48397 7.5,3.5 Z"/></g>
<g><path style="opacity:1" fill="#4d90be" d="M 538.5,11.5 C 534.452,16.2406 529.452,19.2406 523.5,20.5C 527.706,16.3175 532.706,13.3175 538.5,11.5 Z"/></g>
<g><path style="opacity:1" fill="#a1bdd7" d="M 375.5,24.5 C 375.027,25.9063 374.027,26.573 372.5,26.5C 372.973,25.0937 373.973,24.427 375.5,24.5 Z"/></g>
<g><path style="opacity:1" fill="#4eb5e8" d="M 31.5,17.5 C 40.6406,22.5713 49.6406,27.9046 58.5,33.5C 57.1266,33.6567 55.7932,33.49 54.5,33C 50.9316,29.8584 46.9316,28.5251 42.5,29C 43.3366,27.9887 43.67,26.8221 43.5,25.5C 40.1032,24.6256 36.7699,23.4589 33.5,22C 32.7334,20.5295 32.0668,19.0295 31.5,17.5 Z"/></g>
<g><path style="opacity:1" fill="#4b8ebf" d="M 504.5,31.5 C 501.761,35.2475 498.094,37.2475 493.5,37.5C 496.761,34.8883 500.427,32.8883 504.5,31.5 Z"/></g>
<g><path style="opacity:1" fill="#68bee8" d="M 64.5,36.5 C 68.0246,37.7589 71.0246,39.7589 73.5,42.5C 69.2414,42.2156 66.2414,40.2156 64.5,36.5 Z"/></g>
<g><path style="opacity:1" fill="#2e85c3" d="M 366.5,29.5 C 363.727,32.4516 361.06,35.6182 358.5,39C 359.187,40.1618 359.353,41.3284 359,42.5C 356.895,41.6886 354.895,40.6886 353,39.5C 351.14,41.2009 348.973,42.2009 346.5,42.5C 346.627,45.245 345.46,47.245 343,48.5C 342.612,47.572 341.945,46.9054 341,46.5C 339.56,47.1476 338.06,47.4809 336.5,47.5C 345.938,41.573 355.938,35.573 366.5,29.5 Z"/></g>
<g><path style="opacity:1" fill="#3589c2" d="M 336.5,47.5 C 336.762,48.9778 336.429,50.3112 335.5,51.5C 331.776,52.3765 328.11,53.3765 324.5,54.5C 327.995,51.3469 331.995,49.0135 336.5,47.5 Z"/></g>
<g><path style="opacity:1" fill="#3db0eb" d="M 74.5,42.5 C 84.3988,47.9429 94.0655,53.6096 103.5,59.5C 100.203,57.6141 97.7034,58.2808 96,61.5C 92.8333,60.3333 92.6667,58.8333 95.5,57C 92.5056,56.5943 90.339,55.0943 89,52.5C 88.3333,53.8333 87.3333,54.8333 86,55.5C 84.575,54.7877 83.075,54.621 81.5,55C 82.7282,54.221 83.7282,53.221 84.5,52C 84.3535,50.2729 83.6869,50.1062 82.5,51.5C 81.2888,50.7261 81.2888,49.8928 82.5,49C 80.1578,47.8289 77.8244,46.6622 75.5,45.5C 74.8728,44.5832 74.5394,43.5832 74.5,42.5 Z"/></g>
<g><path style="opacity:1" fill="#5bb8e9" d="M 104.5,59.5 C 110.372,62.5981 116.038,65.9314 121.5,69.5C 118.314,68.6621 115.147,67.6621 112,66.5C 111.228,66.6448 110.561,66.9781 110,67.5C 108.336,64.6779 106.503,62.0113 104.5,59.5 Z"/></g>
<g><path style="opacity:1" fill="#43b3ea" d="M 121.5,69.5 C 126.037,71.9301 130.37,74.5968 134.5,77.5C 131.193,77.5385 128.026,76.8718 125,75.5C 124.744,73.308 123.577,71.308 121.5,69.5 Z"/></g>
<g><path style="opacity:1" fill="#5ab5df" d="M 135.5,78.5 C 140.165,80.8296 144.831,83.163 149.5,85.5C 148.883,85.6107 148.383,85.944 148,86.5C 143.134,84.8348 138.968,82.1682 135.5,78.5 Z"/></g>
<g><path style="opacity:1" fill="#67bbe4" d="M 156.5,90.5 C 160.284,90.8891 163.284,92.5558 165.5,95.5C 161.709,94.9971 158.709,93.3304 156.5,90.5 Z"/></g>
<g><path style="opacity:1" fill="#5f9ac8" d="M 492.5,37.5 C 492.539,38.7562 492.039,39.7562 491,40.5C 490.824,65.239 490.324,89.9056 489.5,114.5C 488.867,91.1627 488.533,67.6627 488.5,44C 488.726,41.0296 490.059,38.8629 492.5,37.5 Z"/></g>
<g><path style="opacity:1" fill="#7bafd3" d="M 244.5,100.5 C 243.489,103.23 241.822,103.897 239.5,102.5C 240.78,101.069 242.447,100.402 244.5,100.5 Z"/></g>
<g><path style="opacity:1" fill="#4e95c6" d="M 525.5,99.5 C 520.961,103.269 515.961,106.269 510.5,108.5C 511.406,107.035 512.739,106.035 514.5,105.5C 515.429,104.311 515.762,102.978 515.5,101.5C 518.523,101.412 521.19,100.412 523.5,98.5C 524.183,98.8627 524.85,99.1961 525.5,99.5 Z"/></g>
<g><path style="opacity:1" fill="#4fb5ea" d="M 166.5,95.5 C 178.096,101.771 189.429,108.438 200.5,115.5C 196.384,113.414 192.051,111.747 187.5,110.5C 184.822,107.33 181.489,105.497 177.5,105C 179.616,106.171 180.282,107.671 179.5,109.5C 177.672,108.205 175.672,107.205 173.5,106.5C 174.311,105.784 174.978,104.95 175.5,104C 173.419,101.256 170.752,99.2561 167.5,98C 166.748,97.3292 166.414,96.4959 166.5,95.5 Z"/></g>
<g><path style="opacity:1" fill="#3d8bbe" d="M 510.5,108.5 C 510.607,110.379 510.107,110.712 509,109.5C 502.673,113.073 496.507,116.739 490.5,120.5C 489.713,119.758 489.047,118.925 488.5,118C 488.728,117.601 489.062,117.435 489.5,117.5C 491.879,118.567 492.879,117.567 492.5,114.5C 498.694,112.953 504.694,110.953 510.5,108.5 Z"/></g>
<g><path style="opacity:1" fill="#5492c2" d="M 340.5,125.5 C 339.746,127.505 338.579,128.172 337,127.5C 335.358,129.102 333.525,130.435 331.5,131.5C 331.33,130.178 331.663,129.011 332.5,128C 335.096,126.864 337.763,126.031 340.5,125.5 Z"/></g>
<g><path style="opacity:1" fill="#4990c5" d="M 331.5,131.5 C 326.313,134.685 321.146,138.018 316,141.5C 315.617,140.944 315.117,140.611 314.5,140.5C 315.884,137.63 318.218,135.963 321.5,135.5C 320.167,134.833 318.833,134.167 317.5,133.5C 319.593,131.048 321.76,131.048 324,133.5C 326.27,132.14 328.77,131.473 331.5,131.5 Z"/></g>
<g><path style="opacity:1" fill="#5bb7e6" d="M 95.5,135.5 C 100.077,137.58 104.744,139.247 109.5,140.5C 109.5,141.5 109.5,142.5 109.5,143.5C 111.806,143.993 114.139,144.326 116.5,144.5C 116.831,146.322 117.498,147.989 118.5,149.5C 110.598,145.057 102.932,140.39 95.5,135.5 Z"/></g>
<g><path style="opacity:1" fill="#649dc9" d="M 349.5,201.5 C 349.167,201.5 348.833,201.5 348.5,201.5C 348.866,174.816 348.866,148.149 348.5,121.5C 348.905,120.45 349.571,120.45 350.5,121.5C 350.833,122.167 351.167,122.833 351.5,123.5C 350.851,149.646 350.184,175.646 349.5,201.5 Z"/></g>
<g><path style="opacity:1" fill="#609eca" d="M 418.5,-0.5 C 418.833,-0.5 419.167,-0.5 419.5,-0.5C 419.429,77.0139 419.762,154.514 420.5,232C 420.163,235.523 419.663,239.023 419,242.5C 418.29,243.973 417.124,244.64 415.5,244.5C 415.685,242.804 416.519,241.471 418,240.5C 418.5,161.167 418.667,81.834 418.5,2.5C 417.5,2.5 416.5,2.5 415.5,2.5C 416.167,1.83333 416.833,1.16667 417.5,0.5C 418.167,0.5 418.5,0.166667 418.5,-0.5 Z"/></g>
<g><path style="opacity:1" fill="#5091c0" d="M 297.5,150.5 C 291.541,154.15 285.541,157.817 279.5,161.5C 280.502,159.989 281.169,158.322 281.5,156.5C 286.8,154.534 292.133,152.534 297.5,150.5 Z"/></g>
<g><path style="opacity:1" fill="#4591c9" d="M 279.5,161.5 C 275.568,163.805 271.568,166.138 267.5,168.5C 266.909,167.849 266.243,167.182 265.5,166.5C 267.911,165.912 269.911,164.745 271.5,163C 270.5,162.667 269.5,162.333 268.5,162C 272.169,162.819 275.835,162.652 279.5,161.5 Z"/></g>
<g><path style="opacity:1" fill="#36b1f0" d="M 118.5,149.5 C 122.95,149.408 126.783,150.742 130,153.5C 133.611,151.648 137.444,150.815 141.5,151C 140.337,153.629 139.337,156.295 138.5,159C 140.411,160.496 142.411,161.829 144.5,163C 146.898,163.374 149.231,163.374 151.5,163C 150.663,164.011 150.33,165.178 150.5,166.5C 151.5,166.5 152.5,166.5 153.5,166.5C 153.351,165.448 153.517,164.448 154,163.5C 156.543,164.876 156.709,166.043 154.5,167C 158.194,173.318 161.194,172.985 163.5,166C 164.725,165.437 165.725,165.77 166.5,167C 165.122,168.713 163.455,170.047 161.5,171C 163.076,172.73 164.41,174.563 165.5,176.5C 149.917,167.31 134.25,158.31 118.5,149.5 Z"/></g>
<g><path style="opacity:1" fill="#0481cb" d="M 559.5,160.5 C 559.5,214.833 559.5,269.167 559.5,323.5C 538.653,335.462 517.986,347.129 497.5,358.5C 493.104,357.944 490.104,359.61 488.5,363.5C 488.5,363.833 488.5,364.167 488.5,364.5C 485.751,364.726 483.084,364.393 480.5,363.5C 481.166,364.993 481.166,366.66 480.5,368.5C 473.703,372.736 466.703,376.736 459.5,380.5C 456.254,380.865 453.588,379.865 451.5,377.5C 448.597,379.552 448.93,380.886 452.5,381.5C 451.833,382.5 451.167,383.5 450.5,384.5C 444.836,386.78 439.503,389.613 434.5,393C 435.056,393.383 435.389,393.883 435.5,394.5C 431.875,394.811 428.542,395.978 425.5,398C 426.048,399.596 425.382,400.763 423.5,401.5C 417.426,406.205 410.759,409.871 403.5,412.5C 400.986,412.754 398.652,413.587 396.5,415C 394.937,415.759 393.937,416.926 393.5,418.5C 391.664,420.588 389.331,421.921 386.5,422.5C 382.53,422.35 379.863,424.017 378.5,427.5C 373.83,426.415 370.83,428.082 369.5,432.5C 363.075,437.353 356.408,441.019 349.5,443.5C 348.855,415.941 349.522,388.607 351.5,361.5C 358.194,357.821 364.86,354.154 371.5,350.5C 374.1,349.532 376.434,348.199 378.5,346.5C 381.644,346.044 384.644,345.044 387.5,343.5C 391.758,340.577 396.091,337.744 400.5,335C 403.79,335.369 407.123,335.369 410.5,335C 410.833,334.667 411.167,334.333 411.5,334C 409.167,333.667 406.833,333.333 404.5,333C 405.328,332.085 406.328,331.419 407.5,331C 410.966,331.406 414.3,332.072 417.5,333C 419.585,331.959 421.252,330.459 422.5,328.5C 420.716,327.394 418.882,327.394 417,328.5C 415.743,328.15 415.409,327.483 416,326.5C 418.343,325.873 420.51,324.873 422.5,323.5C 422.911,324.262 423.077,325.262 423,326.5C 425.736,324.971 425.902,323.471 423.5,322C 424.252,321.329 424.586,320.496 424.5,319.5C 428.238,317.335 431.571,315.335 434.5,313.5C 436.179,313.715 437.179,313.048 437.5,311.5C 453.102,303.819 467.602,295.153 481,285.5C 481.986,286.171 483.153,286.171 484.5,285.5C 486.137,284.782 487.803,284.616 489.5,285C 488.692,285.308 488.025,285.808 487.5,286.5C 488.689,287.429 490.022,287.762 491.5,287.5C 490.192,259.524 490.192,231.524 491.5,203.5C 494.792,200.474 498.625,198.474 503,197.5C 505.368,199.369 507.868,201.036 510.5,202.5C 511.386,201.675 511.719,200.675 511.5,199.5C 507.178,199.251 506.178,197.584 508.5,194.5C 507.975,193.808 507.308,193.308 506.5,193C 508.256,192.798 509.922,192.298 511.5,191.5C 513.383,189.3 515.717,187.633 518.5,186.5C 520.28,187.915 521.946,187.748 523.5,186C 522.833,185.667 522.167,185.333 521.5,185C 523.439,184.092 524.439,182.592 524.5,180.5C 527.497,179.172 530.497,177.839 533.5,176.5C 537.505,175.502 540.839,173.502 543.5,170.5C 548.493,166.885 553.826,163.552 559.5,160.5 Z"/></g>
<g><path style="opacity:1" fill="#5496c6" d="M 266.5,168.5 C 263.279,171.278 259.612,173.278 255.5,174.5C 255.881,173.069 256.881,172.236 258.5,172C 258.167,171.667 257.833,171.333 257.5,171C 260.513,170.091 263.513,169.258 266.5,168.5 Z"/></g>
<g><path style="opacity:1" fill="#68bbe9" d="M 71.5,121.5 C 70.3065,121.97 69.6399,122.97 69.5,124.5C 69.9062,175.494 70.2396,226.494 70.5,277.5C 70.3333,278.833 70.1667,280.167 70,281.5C 69.586,281.957 69.086,282.291 68.5,282.5C 65.1002,280.144 61.7669,277.811 58.5,275.5C 61.9443,276.646 65.2776,277.979 68.5,279.5C 68.5,226.5 68.5,173.5 68.5,120.5C 69.791,120.263 70.791,120.596 71.5,121.5 Z"/></g>
<g><path style="opacity:1" fill="#4b94bf" d="M 543.5,170.5 C 540.839,173.502 537.505,175.502 533.5,176.5C 536.206,173.479 539.539,171.479 543.5,170.5 Z"/></g>
<g><path style="opacity:1" fill="#428dc3" d="M 245.5,180.5 C 241.165,183.101 236.998,186.101 233,189.5C 232.667,189.167 232.333,188.833 232,188.5C 230.871,190.141 229.371,191.141 227.5,191.5C 228.727,189.419 230.227,187.419 232,185.5C 232.684,184.216 232.517,183.049 231.5,182C 233.931,181.748 236.265,182.248 238.5,183.5C 240.498,181.666 242.832,180.666 245.5,180.5 Z"/></g>
<g><path style="opacity:1" fill="#32b1f0" d="M 196.5,194.5 C 185.681,189.228 175.348,183.228 165.5,176.5C 168.206,176.425 170.873,176.092 173.5,175.5C 173.351,176.552 173.517,177.552 174,178.5C 175.503,178.165 176.836,178.165 178,178.5C 178.593,182.334 180.759,184.334 184.5,184.5C 184.5,183.5 184.5,182.5 184.5,181.5C 186.288,181.215 187.955,181.548 189.5,182.5C 188.833,183.167 188.167,183.833 187.5,184.5C 190.182,186.851 192.849,189.184 195.5,191.5C 196.127,192.417 196.461,193.417 196.5,194.5 Z"/></g>
<g><path style="opacity:0.514" fill="#94daf3" d="M 511.5,188.5 C 510.713,190.104 509.38,190.771 507.5,190.5C 508.514,189.326 509.847,188.66 511.5,188.5 Z"/></g>
<g><path style="opacity:1" fill="#4891c1" d="M 226.5,191.5 C 224.157,193.674 221.657,195.674 219,197.5C 218.667,197.167 218.333,196.833 218,196.5C 215.842,198.494 213.342,199.828 210.5,200.5C 209.833,200.5 209.5,200.167 209.5,199.5C 211.048,199.179 211.715,198.179 211.5,196.5C 213.167,196.5 214.833,196.5 216.5,196.5C 216.119,194.058 216.786,193.391 218.5,194.5C 220.81,192.588 223.477,191.588 226.5,191.5 Z"/></g>
<g><path style="opacity:1" fill="#2585c4" d="M 348.5,201.5 C 348.833,201.5 349.167,201.5 349.5,201.5C 349.063,203.074 348.063,204.241 346.5,205C 347.731,206.183 347.731,207.349 346.5,208.5C 344.574,209.061 342.574,209.227 340.5,209C 339.333,210.833 337.833,212.333 336,213.5C 335.798,215.256 335.298,216.922 334.5,218.5C 332.833,217.667 331.167,216.833 329.5,216C 330.5,215.667 331.5,215.333 332.5,215C 329.788,214.262 327.455,214.929 325.5,217C 327.985,218.223 328.152,219.723 326,221.5C 323.57,221.383 321.07,220.716 318.5,219.5C 328.238,213.102 338.238,207.102 348.5,201.5 Z"/></g>
<g><path style="opacity:1" fill="#2c86c3" d="M 313.5,222.5 C 313.5,223.5 313.5,224.5 313.5,225.5C 314.675,225.281 315.675,225.614 316.5,226.5C 314.511,227.615 312.678,227.282 311,225.5C 309.075,227.085 306.909,228.252 304.5,229C 307.222,232.614 306.389,233.781 302,232.5C 299.98,236.764 296.813,238.098 292.5,236.5C 292.5,237.5 292.5,238.5 292.5,239.5C 291.178,239.67 290.011,239.337 289,238.5C 286.341,240.06 285.174,242.393 285.5,245.5C 283.61,245.297 282.11,245.963 281,247.5C 282.012,244.659 280.845,243.326 277.5,243.5C 282.621,239.931 287.788,236.264 293,232.5C 293.333,232.833 293.667,233.167 294,233.5C 298.682,230.993 303.015,227.993 307,224.5C 307.333,224.833 307.667,225.167 308,225.5C 309.346,223.658 311.179,222.658 313.5,222.5 Z"/></g>
<g><path style="opacity:1" fill="#4fb4e7" d="M 14.5,250.5 C 16.7743,250.715 18.941,251.382 21,252.5C 22.9354,251.657 24.7688,251.657 26.5,252.5C 25.624,253.251 24.624,253.751 23.5,254C 26.7751,256.698 30.4418,258.531 34.5,259.5C 34.5,260.5 34.5,261.5 34.5,262.5C 27.546,258.858 20.8793,254.858 14.5,250.5 Z"/></g>
<g><path style="opacity:1" fill="#8ab9d0" d="M 249.5,259.5 C 248.486,260.674 247.153,261.34 245.5,261.5C 246.287,259.896 247.62,259.229 249.5,259.5 Z"/></g>
<g><path style="opacity:1" fill="#4b8ec0" d="M 392.5,257.5 C 387.466,261.017 382.133,264.017 376.5,266.5C 376.414,265.504 376.748,264.671 377.5,264C 380.255,262.829 382.921,261.496 385.5,260C 385.167,259.667 384.833,259.333 384.5,259C 387.168,258.433 389.834,257.933 392.5,257.5 Z"/></g>
<g><path style="opacity:1" fill="#3fb3e9" d="M 39.5,265.5 C 43.2733,265.263 46.9399,265.763 50.5,267C 52.5974,269.873 54.5974,272.706 56.5,275.5C 50.8112,272.131 45.1445,268.798 39.5,265.5 Z"/></g>
<g><path style="opacity:1" fill="#488fc4" d="M 524.5,180.5 C 524.439,182.592 523.439,184.092 521.5,185C 522.167,185.333 522.833,185.667 523.5,186C 521.946,187.748 520.28,187.915 518.5,186.5C 515.717,187.633 513.383,189.3 511.5,191.5C 509.922,192.298 508.256,192.798 506.5,193C 507.308,193.308 507.975,193.808 508.5,194.5C 506.178,197.584 507.178,199.251 511.5,199.5C 511.719,200.675 511.386,201.675 510.5,202.5C 507.868,201.036 505.368,199.369 503,197.5C 498.625,198.474 494.792,200.474 491.5,203.5C 490.192,231.524 490.192,259.524 491.5,287.5C 490.022,287.762 488.689,287.429 487.5,286.5C 488.025,285.808 488.692,285.308 489.5,285C 487.803,284.616 486.137,284.782 484.5,285.5C 485.287,283.896 486.62,283.229 488.5,283.5C 488.595,256.807 488.761,230.141 489,203.5C 490.618,200.879 492.618,198.546 495,196.5C 495.333,196.833 495.667,197.167 496,197.5C 500.075,194.642 503.908,192.309 507.5,190.5C 509.38,190.771 510.713,190.104 511.5,188.5C 515.833,185.833 520.167,183.167 524.5,180.5 Z"/></g>
<g><path style="opacity:1" fill="#2184c4" d="M 262.5,251.5 C 262.141,253.371 261.141,254.871 259.5,256C 256.485,257.669 253.485,259.336 250.5,261C 252.679,261.442 253.345,262.442 252.5,264C 249.955,263.199 247.288,262.866 244.5,263C 241.833,264.333 241.833,265.667 244.5,267C 242.557,266.695 240.557,266.695 238.5,267C 236.242,268.93 233.742,270.43 231,271.5C 231.063,272.962 231.729,274.295 233,275.5C 235.184,273.129 237.35,273.296 239.5,276C 235.433,278.365 231.766,277.865 228.5,274.5C 226.884,275.115 225.551,276.115 224.5,277.5C 223.833,277.167 223.167,276.833 222.5,276.5C 220.395,278.343 219.228,280.676 219,283.5C 217.698,284.085 216.531,284.751 215.5,285.5C 213.833,284.833 212.167,284.167 210.5,283.5C 213.367,282.488 215.367,280.488 216.5,277.5C 225.998,271.916 235.665,266.583 245.5,261.5C 247.153,261.34 248.486,260.674 249.5,259.5C 253.482,256.479 257.815,253.812 262.5,251.5 Z"/></g>
<g><path style="opacity:1" fill="#428dc1" d="M 364.5,273.5 C 364.607,275.379 364.107,275.712 363,274.5C 352.049,281.438 340.883,288.105 329.5,294.5C 329.389,293.883 329.056,293.383 328.5,293C 330.043,290.298 332.376,289.132 335.5,289.5C 336.578,285.616 339.245,283.783 343.5,284C 343.167,283.667 342.833,283.333 342.5,283C 347.3,282.458 351.3,280.458 354.5,277C 357.688,275.37 361.021,274.204 364.5,273.5 Z"/></g>
<g><path style="opacity:1" fill="#05affd" d="M 210.5,283.5 C 212.167,284.167 213.833,284.833 215.5,285.5C 236.686,297.681 257.852,310.014 279,322.5C 279.71,321.027 280.876,320.36 282.5,320.5C 281.697,321.423 281.53,322.423 282,323.5C 285.651,325.733 289.151,328.066 292.5,330.5C 295.541,332.731 297.707,335.731 299,339.5C 301.349,339.516 303.682,339.516 306,339.5C 309.29,341.081 312.457,342.914 315.5,345C 316.793,345.49 318.127,345.657 319.5,345.5C 320.167,345.833 320.833,346.167 321.5,346.5C 322.895,349.312 325.229,350.646 328.5,350.5C 330.822,355.511 334.822,358.344 340.5,359C 339.833,360.333 339.167,361.667 338.5,363C 339.935,362.689 341.268,362.855 342.5,363.5C 343.842,361.995 345.508,361.328 347.5,361.5C 348.833,361.5 350.167,361.5 351.5,361.5C 349.522,388.607 348.855,415.941 349.5,443.5C 348.153,442.829 346.986,442.829 346,443.5C 344.855,442.364 343.688,441.364 342.5,440.5C 342.027,439.094 341.027,438.427 339.5,438.5C 334.233,435.89 329.233,432.89 324.5,429.5C 324.011,426.676 322.344,425.343 319.5,425.5C 319.891,422.162 318.724,421.162 316,422.5C 314.073,421.139 311.906,420.306 309.5,420C 310.517,418.951 310.684,417.784 310,416.5C 308.984,417.634 308.317,417.301 308,415.5C 307.275,416.059 306.442,416.392 305.5,416.5C 303.87,415.579 302.203,414.745 300.5,414C 301.167,413.333 301.833,412.667 302.5,412C 300.871,411.415 299.371,410.581 298,409.5C 296.535,410.33 295.035,410.496 293.5,410C 291.038,407.464 288.038,405.964 284.5,405.5C 283.614,404.675 283.281,403.675 283.5,402.5C 281.5,402.5 279.5,402.5 277.5,402.5C 268.611,398.14 260.111,393.14 252,387.5C 251.667,387.833 251.333,388.167 251,388.5C 242.683,383.267 234.516,377.934 226.5,372.5C 225.365,371.526 224.365,370.359 223.5,369C 218.542,367.686 214.375,365.186 211,361.5C 210.5,335.502 210.333,309.502 210.5,283.5 Z"/></g>
<g><path style="opacity:1" fill="#4991c6" d="M 328.5,294.5 C 319.035,301.097 308.702,307.097 297.5,312.5C 297.185,310.774 297.019,309.107 297,307.5C 298.543,308.285 300.21,308.285 302,307.5C 302.833,307.167 303.667,306.833 304.5,306.5C 303.347,303.338 304.347,302.671 307.5,304.5C 309.39,303.388 311.39,302.554 313.5,302C 314.851,300.383 316.518,299.216 318.5,298.5C 318.023,297.522 317.357,296.689 316.5,296C 317.416,295.626 318.25,295.126 319,294.5C 319.249,295.624 319.749,296.624 320.5,297.5C 322.816,295.506 325.482,294.506 328.5,294.5 Z"/></g>
<g><path style="opacity:1" fill="#6cbae7" d="M 216.5,277.5 C 215.367,280.488 213.367,282.488 210.5,283.5C 210.333,309.502 210.5,335.502 211,361.5C 214.375,365.186 218.542,367.686 223.5,369C 224.365,370.359 225.365,371.526 226.5,372.5C 221.142,370.037 215.808,367.37 210.5,364.5C 209.063,362.979 208.396,361.145 208.5,359C 208.837,333.399 209.003,307.899 209,282.5C 211.575,281.114 214.075,279.447 216.5,277.5 Z"/></g>
<g><path style="opacity:0.557" fill="#9bdbf7" d="M 437.5,311.5 C 437.179,313.048 436.179,313.715 434.5,313.5C 435.29,312.599 436.29,311.932 437.5,311.5 Z"/></g>
<g><path style="opacity:1" fill="#2e86c3" d="M 424.5,319.5 C 424.586,320.496 424.252,321.329 423.5,322C 425.902,323.471 425.736,324.971 423,326.5C 423.077,325.262 422.911,324.262 422.5,323.5C 420.51,324.873 418.343,325.873 416,326.5C 415.409,327.483 415.743,328.15 417,328.5C 418.882,327.394 420.716,327.394 422.5,328.5C 421.252,330.459 419.585,331.959 417.5,333C 414.3,332.072 410.966,331.406 407.5,331C 406.328,331.419 405.328,332.085 404.5,333C 406.833,333.333 409.167,333.667 411.5,334C 411.167,334.333 410.833,334.667 410.5,335C 407.123,335.369 403.79,335.369 400.5,335C 396.091,337.744 391.758,340.577 387.5,343.5C 384.644,345.044 381.644,346.044 378.5,346.5C 392.029,337.694 406.029,329.528 420.5,322C 421.126,321.25 421.626,320.416 422,319.5C 422.77,320.598 423.603,320.598 424.5,319.5 Z"/></g>
<g><path style="opacity:1" fill="#47b4ec" d="M 292.5,330.5 C 302.25,334.272 311.25,339.272 319.5,345.5C 318.127,345.657 316.793,345.49 315.5,345C 312.457,342.914 309.29,341.081 306,339.5C 303.682,339.516 301.349,339.516 299,339.5C 297.707,335.731 295.541,332.731 292.5,330.5 Z"/></g>
<g><path style="opacity:1" fill="#7ec7eb" d="M 321.5,346.5 C 324.331,347.079 326.664,348.412 328.5,350.5C 325.229,350.646 322.895,349.312 321.5,346.5 Z"/></g>
<g><path style="opacity:1" fill="#7eaecd" d="M 378.5,346.5 C 376.434,348.199 374.1,349.532 371.5,350.5C 373.052,347.888 375.386,346.555 378.5,346.5 Z"/></g>
<g><path style="opacity:1" fill="#48b4e9" d="M 328.5,350.5 C 334.781,354.36 341.114,358.027 347.5,361.5C 345.508,361.328 343.842,361.995 342.5,363.5C 341.268,362.855 339.935,362.689 338.5,363C 339.167,361.667 339.833,360.333 340.5,359C 334.822,358.344 330.822,355.511 328.5,350.5 Z"/></g>
<g><path style="opacity:1" fill="#659fc9" d="M 497.5,358.5 C 495.252,361.393 492.252,363.06 488.5,363.5C 490.104,359.61 493.104,357.944 497.5,358.5 Z"/></g>
<g><path style="opacity:1" fill="#5495c9" d="M 488.5,364.5 C 485.899,365.801 483.232,367.134 480.5,368.5C 481.166,366.66 481.166,364.993 480.5,363.5C 483.084,364.393 485.751,364.726 488.5,364.5 Z"/></g>
<g><path style="opacity:1" fill="#4890c5" d="M 459.5,380.5 C 455.706,383.099 451.873,385.766 448,388.5C 447.667,388.167 447.333,387.833 447,387.5C 443.261,390.091 439.427,392.424 435.5,394.5C 435.389,393.883 435.056,393.383 434.5,393C 439.503,389.613 444.836,386.78 450.5,384.5C 451.167,383.5 451.833,382.5 452.5,381.5C 448.93,380.886 448.597,379.552 451.5,377.5C 453.588,379.865 456.254,380.865 459.5,380.5 Z"/></g>
<g><path style="opacity:1" fill="#649dca" d="M 435.5,394.5 C 431.522,396.83 427.522,399.164 423.5,401.5C 425.382,400.763 426.048,399.596 425.5,398C 428.542,395.978 431.875,394.811 435.5,394.5 Z"/></g>
<g><path style="opacity:1" fill="#5996c2" d="M 403.5,412.5 C 400.506,415 397.173,417 393.5,418.5C 393.937,416.926 394.937,415.759 396.5,415C 398.652,413.587 400.986,412.754 403.5,412.5 Z"/></g>
<g><path style="opacity:1" fill="#4ab4ec" d="M 277.5,402.5 C 279.5,402.5 281.5,402.5 283.5,402.5C 283.281,403.675 283.614,404.675 284.5,405.5C 288.038,405.964 291.038,407.464 293.5,410C 295.035,410.496 296.535,410.33 298,409.5C 299.371,410.581 300.871,411.415 302.5,412C 301.833,412.667 301.167,413.333 300.5,414C 302.203,414.745 303.87,415.579 305.5,416.5C 306.442,416.392 307.275,416.059 308,415.5C 308.317,417.301 308.984,417.634 310,416.5C 310.684,417.784 310.517,418.951 309.5,420C 311.906,420.306 314.073,421.139 316,422.5C 318.724,421.162 319.891,422.162 319.5,425.5C 322.344,425.343 324.011,426.676 324.5,429.5C 308.401,421.044 292.734,412.044 277.5,402.5 Z"/></g>
<g><path style="opacity:1" fill="#6ca3c7" d="M 386.5,422.5 C 384.371,424.95 381.704,426.617 378.5,427.5C 379.863,424.017 382.53,422.35 386.5,422.5 Z"/></g>
<g><path style="opacity:1" fill="#5997c5" d="M 378.5,427.5 C 375.548,429.908 372.548,431.575 369.5,432.5C 370.83,428.082 373.83,426.415 378.5,427.5 Z"/></g>
<g><path style="opacity:1" fill="#95d8e8" d="M 339.5,438.5 C 341.027,438.427 342.027,439.094 342.5,440.5C 340.973,440.573 339.973,439.906 339.5,438.5 Z"/></g>
</svg>
